<svg id="Layer_1" data-name="Layer 1" xmlns="http://www.w3.org/2000/svg" viewBox="0 0 100 100"><title>1 copy</title><path d="M98.33,37.78H92.87a1.66,1.66,0,0,1-1.66-1.66v-7a1.66,1.66,0,0,0-1.67-1.66H39A1.66,1.66,0,0,0,37.3,29.1v7a1.66,1.66,0,0,1-1.66,1.66H30.18a1.67,1.67,0,0,0-1.67,1.67V52.72a1.67,1.67,0,0,0,1.67,1.67h5.33a1.79,1.79,0,0,1,1.79,1.79l.05,25.17A1.67,1.67,0,0,0,39,83a1.66,1.66,0,0,1,1.65,1.66V90a1.66,1.66,0,0,0,1.67,1.66H47.2A1.66,1.66,0,0,0,48.87,90V84.78a1.67,1.67,0,0,1,1.68-1.67l26.91.24A1.66,1.66,0,0,1,79.11,85v5a1.66,1.66,0,0,0,1.67,1.66h4.88A1.66,1.66,0,0,0,87.33,90V85.12A1.66,1.66,0,0,1,89,83.45h.57a1.68,1.68,0,0,0,1.68-1.67l-.05-25.61A1.79,1.79,0,0,1,93,54.39h5.33A1.67,1.67,0,0,0,100,52.72V39.45A1.67,1.67,0,0,0,98.33,37.78ZM48.25,77.33a4.83,4.83,0,1,1,4.83-4.83A4.83,4.83,0,0,1,48.25,77.33Zm23.12-3.28a1.11,1.11,0,0,1-1.06,1.17H58.2a1.11,1.11,0,0,1-1.06-1.17V70.94a1.11,1.11,0,0,1,1.06-1.16H70.31a1.11,1.11,0,0,1,1.06,1.16ZM45,63.41a1.61,1.61,0,0,1-1.61-1.61V34.68A1.61,1.61,0,0,1,45,33.07H83.48a1.61,1.61,0,0,1,1.61,1.61V61.8a1.61,1.61,0,0,1-1.61,1.61ZM80.26,77.33a4.83,4.83,0,1,1,4.83-4.83A4.83,4.83,0,0,1,80.26,77.33Z"/><path d="M44.07,8.32a3,3,0,1,0,0-6.07A40.42,40.42,0,0,0,3.69,42.62h0a3,3,0,1,0,6.07,0h0A34.35,34.35,0,0,1,44.07,8.32Z"/><path d="M44.07,14.9A27.76,27.76,0,0,0,16.34,42.63a3,3,0,0,0,6.08,0A21.67,21.67,0,0,1,44.07,21a3,3,0,0,0,0-6.08Z"/></svg>